<svg xmlns="http://www.w3.org/2000/svg" viewBox="0 8.859999656677246 247.44000244140625 37.0099983215332" data-asc="0.9052734375" width="247.44000244140625" height="37.0099983215332"><defs/><g fill="#000000"><g transform="translate(0, 0)"><path d="M0 29.61L0 25.51L23.71 15.50L23.71 19.87L4.91 27.59L23.71 35.38L23.71 39.75L0 29.61ZM27.91 35.11L32.18 34.52Q32.35 38.62 33.72 40.14Q35.08 41.65 37.50 41.65Q39.28 41.65 40.58 40.83Q41.87 40.01 42.36 38.61Q42.85 37.21 42.85 34.13L42.85 9.47L47.58 9.47L47.58 33.86Q47.58 38.35 46.50 40.82Q45.41 43.29 43.05 44.58Q40.70 45.87 37.52 45.87Q32.81 45.87 30.31 43.16Q27.81 40.45 27.91 35.11ZM55.40 45.26L55.40 9.47L71.26 9.47Q76.05 9.47 78.54 10.44Q81.03 11.40 82.52 13.84Q84.01 16.28 84.01 19.24Q84.01 23.05 81.54 25.66Q79.08 28.27 73.93 28.98Q75.81 29.88 76.78 30.76Q78.86 32.67 80.71 35.52L86.94 45.26L80.98 45.26L76.25 37.82Q74.17 34.59 72.83 32.89Q71.48 31.18 70.42 30.49Q69.36 29.81 68.26 29.54Q67.46 29.37 65.63 29.37L60.13 29.37L60.13 45.26L55.40 45.26M60.13 25.27L70.31 25.27Q73.56 25.27 75.39 24.60Q77.22 23.93 78.17 22.45Q79.13 20.97 79.13 19.24Q79.13 16.70 77.28 15.06Q75.44 13.43 71.46 13.43L60.13 13.43L60.13 25.27ZM116.97 32.71L121.70 33.91Q120.21 39.75 116.35 42.81Q112.48 45.87 106.88 45.87Q101.10 45.87 97.47 43.52Q93.85 41.16 91.96 36.69Q90.06 32.23 90.06 27.10Q90.06 21.51 92.20 17.35Q94.34 13.18 98.28 11.02Q102.22 8.86 106.96 8.86Q112.33 8.86 115.99 11.60Q119.65 14.33 121.09 19.29L116.43 20.39Q115.19 16.48 112.82 14.70Q110.45 12.92 106.86 12.92Q102.73 12.92 99.96 14.89Q97.19 16.87 96.07 20.20Q94.95 23.54 94.95 27.08Q94.95 31.64 96.28 35.05Q97.61 38.45 100.42 40.14Q103.22 41.82 106.49 41.82Q110.47 41.82 113.23 39.53Q115.99 37.23 116.97 32.71ZM125.34 32.30Q125.34 25.10 129.35 21.63Q132.69 18.75 137.50 18.75Q142.85 18.75 146.24 22.25Q149.63 25.76 149.63 31.93Q149.63 36.94 148.13 39.81Q146.63 42.68 143.76 44.26Q140.89 45.85 137.50 45.85Q132.06 45.85 128.70 42.36Q125.34 38.87 125.34 32.30M129.86 32.30Q129.86 37.28 132.03 39.76Q134.20 42.24 137.50 42.24Q140.77 42.24 142.94 39.75Q145.12 37.26 145.12 32.15Q145.12 27.34 142.93 24.87Q140.75 22.39 137.50 22.39Q134.20 22.39 132.03 24.85Q129.86 27.32 129.86 32.30ZM171.61 45.26L171.61 41.99Q169.14 45.85 164.36 45.85Q161.25 45.85 158.65 44.14Q156.05 42.43 154.63 39.37Q153.20 36.30 153.20 32.32Q153.20 28.44 154.49 25.28Q155.79 22.12 158.37 20.43Q160.96 18.75 164.16 18.75Q166.50 18.75 168.33 19.74Q170.17 20.73 171.31 22.31L171.31 9.47L175.68 9.47L175.68 45.26L171.61 45.26M157.71 32.32Q157.71 37.30 159.81 39.77Q161.91 42.24 164.77 42.24Q167.65 42.24 169.67 39.88Q171.68 37.52 171.68 32.69Q171.68 27.37 169.63 24.88Q167.58 22.39 164.58 22.39Q161.65 22.39 159.68 24.78Q157.71 27.17 157.71 32.32ZM200.34 36.91L204.88 37.48Q203.81 41.46 200.90 43.65Q198.00 45.85 193.48 45.85Q187.79 45.85 184.46 42.35Q181.13 38.84 181.13 32.52Q181.13 25.98 184.50 22.36Q187.87 18.75 193.24 18.75Q198.44 18.75 201.73 22.29Q205.03 25.83 205.03 32.25Q205.03 32.64 205.00 33.42L185.67 33.42Q185.91 37.70 188.09 39.97Q190.26 42.24 193.51 42.24Q195.92 42.24 197.63 40.97Q199.34 39.70 200.34 36.91M185.91 29.81L200.39 29.81Q200.10 26.54 198.73 24.90Q196.63 22.36 193.29 22.36Q190.26 22.36 188.20 24.39Q186.13 26.42 185.91 29.81ZM207.10 45.87L217.48 8.86L221.00 8.86L210.64 45.87L207.10 45.87ZM247.44 29.61L223.73 39.75L223.73 35.38L242.50 27.59L223.73 19.87L223.73 15.50L247.44 25.51L247.44 29.61Z"/></g></g></svg>